<?xml version="1.0" standalone="no"?>
<!DOCTYPE svg PUBLIC "-//W3C//DTD SVG 20010904//EN"
 "http://www.w3.org/TR/2001/REC-SVG-20010904/DTD/svg10.dtd">
<svg version="1.0" xmlns="http://www.w3.org/2000/svg"
 width="1040.000000pt" height="1040.000000pt" viewBox="0 0 1040.000000 1040.000000"
 preserveAspectRatio="xMidYMid meet">
<metadata>
Created by potrace 1.14, written by Peter Selinger 2001-2017
</metadata>
<g transform="translate(0.000000,1040.000000) scale(0.100000,-0.100000)"
fill="#000000" stroke="none">
<path d="M0 8995 l0 -1145 155 0 155 0 2 25 c4 61 16 164 23 204 2 13 7 45 10
70 3 25 10 66 15 91 12 58 19 97 25 139 3 18 8 38 12 45 4 6 8 18 10 25 8 54
37 151 45 151 5 0 6 4 3 10 -15 25 137 348 211 446 13 17 20 34 17 38 -4 3 -2
6 4 6 6 0 22 17 35 38 33 48 150 168 213 217 28 22 52 42 55 45 12 13 151 100
159 100 5 0 11 3 13 8 4 9 48 34 128 72 36 17 77 37 93 46 15 8 27 12 27 8 0
-3 6 -2 13 4 10 8 142 59 157 60 3 0 12 3 20 5 8 3 38 11 65 18 28 6 54 15 60
18 5 3 16 6 25 6 12 1 82 15 100 20 3 1 25 5 50 9 25 5 54 10 65 12 24 5 80
14 115 19 63 8 127 17 150 20 14 2 57 7 95 10 39 3 77 8 85 10 17 4 79 10 310
29 180 15 232 18 650 32 223 8 860 11 924 4 l50 -5 0 -638 c1 -352 -2 -643 -5
-648 -3 -5 -40 13 -83 41 -42 27 -81 50 -86 50 -6 0 -10 4 -10 8 0 13 -204
145 -300 194 -125 65 -302 134 -363 142 -12 2 -29 6 -37 9 -24 8 -129 26 -200
32 -127 13 -315 6 -425 -15 -27 -5 -66 -12 -85 -15 -88 -14 -314 -85 -418
-131 -30 -13 -60 -24 -67 -24 -8 0 -15 -5 -17 -11 -2 -5 -10 -11 -18 -13 -25
-5 -54 -18 -82 -38 -16 -11 -28 -16 -28 -11 0 4 -4 4 -8 -2 -4 -5 -27 -21 -52
-34 -25 -13 -80 -48 -123 -78 -43 -29 -81 -53 -83 -53 -3 0 -10 -5 -17 -10
-15 -13 -42 -35 -92 -75 -93 -74 -272 -258 -350 -360 -16 -21 -42 -53 -57 -71
-16 -17 -28 -35 -28 -39 0 -3 -6 -13 -12 -20 -25 -27 -34 -40 -53 -72 -11 -18
-23 -33 -28 -33 -4 0 -5 -4 -2 -10 3 -5 2 -10 -3 -10 -5 0 -12 -8 -16 -17 -3
-10 -15 -31 -25 -48 -48 -73 -158 -287 -196 -380 -16 -38 -32 -74 -37 -79 -4
-6 -8 -16 -8 -22 0 -7 -5 -25 -11 -41 -6 -15 -10 -29 -10 -31 1 -1 -6 -16 -14
-32 -9 -17 -13 -30 -11 -30 3 0 -2 -16 -9 -35 -15 -35 -74 -249 -81 -295 -2
-14 -7 -36 -10 -50 -3 -14 -8 -36 -10 -50 -2 -14 -7 -41 -10 -60 -3 -19 -8
-51 -10 -70 -2 -19 -6 -48 -9 -65 -19 -130 -25 -462 -11 -625 11 -132 23 -233
31 -260 2 -8 6 -32 9 -52 9 -59 44 -207 67 -283 11 -38 23 -79 26 -90 5 -17
53 -151 81 -225 5 -14 11 -29 13 -35 19 -59 218 -424 262 -480 4 -5 35 -48 69
-95 33 -47 64 -87 68 -90 3 -3 13 -14 21 -26 64 -94 280 -309 409 -408 104
-80 233 -166 248 -166 6 0 12 -4 14 -8 3 -10 169 -95 263 -135 106 -46 292
-107 370 -123 22 -4 42 -8 45 -9 9 -2 144 -24 177 -29 17 -2 37 -7 42 -11 6
-3 11 -1 11 6 0 8 4 8 13 2 11 -10 265 -9 332 0 110 16 123 19 220 46 91 25
171 54 220 79 22 11 42 20 45 19 17 -1 243 130 248 145 2 4 7 8 12 8 9 0 154
97 205 138 31 24 74 52 82 52 4 0 8 -792 8 -1760 0 -1557 -2 -1760 -15 -1761
-8 -1 -397 -2 -865 -4 -467 -1 -855 -3 -860 -4 -7 0 -10 -44 -10 -114 l0 -112
2611 -3 2610 -2 0 112 c0 62 -3 115 -7 118 -4 3 -397 5 -873 5 l-866 0 0 1566
0 1567 588 1 c323 0 599 0 615 1 27 0 27 0 27 69 0 52 -4 70 -15 75 -8 3 -15
1 -15 -5 0 -6 -6 -7 -12 -2 -17 10 -67 10 -96 1 -13 -4 -21 -5 -19 0 3 4 -10
7 -28 7 -18 0 -31 -3 -28 -7 2 -5 -7 -4 -20 1 -16 6 -28 6 -36 -2 -6 -6 -11
-7 -11 -1 0 8 -70 11 -105 4 -5 -1 -19 -2 -30 -1 -20 1 -20 8 -20 1254 l0
1252 365 -1 c201 -1 385 -4 410 -8 25 -3 59 -8 75 -11 58 -8 133 -29 167 -46
10 -5 22 -9 28 -9 15 0 111 -64 146 -96 52 -50 126 -172 139 -228 2 -12 12
-48 20 -81 9 -33 18 -85 20 -115 2 -30 4 -55 5 -55 1 0 3 -41 4 -92 2 -58 -1
-90 -7 -86 -6 4 -7 1 -1 -8 5 -8 9 -23 10 -34 0 -11 2 -26 2 -32 2 -9 23 -13
72 -13 l70 0 0 1008 0 1009 -70 0 c-43 0 -70 -5 -71 -11 0 -6 -2 -69 -4 -141
-2 -71 -6 -143 -8 -160 -5 -45 -18 -108 -24 -125 -3 -8 -8 -23 -10 -33 -6 -33
-70 -164 -103 -212 -88 -129 -241 -220 -417 -251 -15 -3 -39 -8 -53 -11 -14
-3 -191 -7 -395 -8 l-370 -3 2 1176 c0 648 1 1184 2 1192 1 13 85 15 703 13
625 -1 739 -4 838 -17 120 -16 293 -69 412 -127 90 -45 198 -115 198 -129 0
-6 3 -9 8 -8 13 5 93 -75 137 -137 54 -77 98 -163 131 -262 15 -43 27 -82 28
-88 2 -5 8 -37 15 -70 8 -33 15 -75 16 -95 2 -19 4 -35 5 -35 3 0 8 -58 12
-122 l2 -53 72 0 72 0 -3 33 c-4 39 -14 200 -21 317 -2 47 -7 110 -10 140 -3
30 -7 80 -9 110 -5 83 -15 209 -21 265 -3 28 -7 74 -7 102 -1 29 -4 53 -7 53
-3 0 -5 15 -6 33 0 31 -9 126 -19 195 -6 46 -13 54 -36 41 -14 -7 -24 -7 -33
0 -7 6 -15 8 -18 5 -8 -7 -398 -7 -405 0 -3 3 -14 1 -25 -5 -13 -7 -23 -7 -32
0 -7 6 -15 8 -18 5 -8 -7 -237 -8 -245 -1 -3 4 -14 2 -25 -4 -13 -7 -23 -7
-32 0 -7 6 -15 8 -18 5 -8 -7 -237 -8 -245 -1 -3 4 -14 2 -25 -4 -13 -7 -23
-7 -32 0 -7 6 -15 8 -18 5 -8 -7 -237 -8 -245 -1 -3 4 -14 2 -25 -4 -13 -7
-23 -7 -32 0 -7 6 -15 8 -18 5 -5 -5 -200 -8 -223 -4 -5 2 -14 1 -20 0 -12 -2
-127 -2 -140 0 -5 2 -14 2 -19 1 -23 -5 -319 -2 -323 3 -3 3 -14 1 -25 -5 -13
-7 -23 -7 -32 0 -7 6 -15 8 -18 5 -5 -5 -373 -8 -388 -3 -3 1 -9 0 -15 -1 -12
-2 -127 -2 -140 0 -5 2 -14 1 -20 0 -12 -2 -127 -2 -140 0 -5 2 -14 1 -20 0
-22 -4 -133 -2 -141 2 -5 3 -17 3 -26 -1 -9 -3 -42 -4 -73 -3 l-55 4 0 484 0
484 58 1 c409 8 1090 -5 1402 -26 47 -3 119 -8 160 -10 41 -3 93 -7 115 -10
22 -2 67 -7 100 -10 60 -5 85 -8 180 -19 28 -3 75 -9 105 -12 30 -3 61 -7 70
-9 8 -1 35 -6 60 -9 25 -3 56 -8 70 -11 14 -2 41 -6 60 -9 19 -2 46 -7 60 -10
14 -3 39 -8 55 -12 17 -3 39 -7 50 -9 11 -3 40 -9 65 -16 25 -6 50 -12 55 -13
6 -2 30 -9 55 -16 25 -7 50 -14 55 -16 81 -19 420 -175 445 -205 3 -3 35 -25
73 -48 37 -24 67 -47 67 -52 0 -5 5 -9 12 -9 14 0 21 -6 138 -122 111 -109
189 -221 280 -402 55 -110 122 -284 135 -353 2 -10 4 -18 5 -18 1 0 3 -7 5
-16 1 -10 11 -50 20 -90 20 -86 20 -90 44 -244 6 -38 12 -79 15 -90 2 -11 7
-56 11 -100 4 -44 9 -83 12 -87 2 -5 69 -8 149 -8 l144 0 0 1145 0 1145 -5200
0 -5200 0 0 -1145z m3246 -39 c39 -4 86 -11 104 -16 18 -5 35 -9 39 -8 3 0 9
-1 14 -2 9 -3 13 -4 57 -14 19 -4 58 -15 85 -24 28 -9 53 -15 58 -14 4 1 7 -2
7 -8 0 -5 3 -9 8 -8 20 6 218 -86 332 -153 38 -22 193 -133 222 -159 10 -8 52
-49 95 -91 l77 -75 0 -2049 1 -2049 -28 -35 c-71 -90 -198 -210 -307 -292 -67
-50 -223 -149 -234 -149 -3 0 -33 -13 -68 -29 -54 -25 -132 -54 -148 -56 -3 0
-9 -3 -15 -6 -8 -6 -108 -30 -180 -45 -117 -24 -375 -24 -493 0 -122 25 -323
97 -352 126 -3 3 -21 14 -40 24 -57 31 -195 141 -239 190 -14 16 -43 47 -63
68 -21 22 -38 44 -38 48 0 5 -6 13 -13 17 -30 18 -225 358 -226 396 0 4 -7 20
-15 35 -24 46 -85 230 -79 236 4 3 1 6 -6 6 -8 0 -11 7 -7 15 3 8 0 15 -6 15
-6 0 -9 3 -6 6 4 3 2 20 -3 37 -11 35 -17 56 -24 88 -2 11 -6 28 -9 37 -3 9
-7 28 -10 42 -3 14 -12 60 -20 102 -9 42 -20 107 -26 145 -6 37 -13 79 -15 93
-2 14 -7 48 -10 75 -3 28 -7 66 -9 85 -5 34 -15 136 -21 215 -2 22 -6 116 -10
210 -3 93 -8 171 -10 174 -2 2 0 12 6 22 6 13 6 19 0 19 -7 0 -7 9 -1 26 6 14
7 23 2 21 -7 -5 -7 132 2 383 7 187 12 250 41 510 6 49 15 115 20 140 2 14 7
39 10 55 3 17 7 40 9 51 2 12 7 38 10 58 3 20 11 55 17 78 5 24 12 53 14 65 1
11 6 30 9 41 7 20 12 41 22 91 3 14 8 29 12 35 3 6 7 16 9 21 10 47 48 166 63
200 5 11 23 54 41 95 38 90 119 244 131 248 4 2 6 7 3 12 -3 5 1 14 8 22 7 7
34 44 61 81 78 111 187 225 277 289 84 61 110 78 118 78 4 0 19 8 32 18 23 17
168 81 199 87 8 2 15 4 15 5 0 1 7 3 15 5 8 1 33 7 55 13 51 13 106 22 169 28
27 2 50 5 52 6 4 5 133 1 210 -6z"/>
</g>
</svg>
